<svg id="Layer_1" data-name="Layer 1" xmlns="http://www.w3.org/2000/svg" xmlns:xlink="http://www.w3.org/1999/xlink" viewBox="0 0 215.3 114.3"><defs><style>.cls-1{fill:url(#linear-gradient);}.cls-2{fill:url(#linear-gradient-2);}.cls-3{fill:url(#linear-gradient-3);}.cls-4{fill:#010101;}</style><linearGradient id="linear-gradient" y1="58.45" x2="95" y2="58.45" gradientTransform="matrix(1, 0, 0, -1, 0, 115.6)" gradientUnits="userSpaceOnUse"><stop offset="0" stop-color="#9256a3"/><stop offset="1" stop-color="#6f4c9f"/></linearGradient><linearGradient id="linear-gradient-2" x1="62.76" y1="81.7" x2="73.16" y2="81.7" xlink:href="#linear-gradient"/><linearGradient id="linear-gradient-3" x1="21.93" y1="81.7" x2="32.33" y2="81.7" xlink:href="#linear-gradient"/></defs><title>logo-horizontal-colored</title><g id="Horizontal"><path class="cls-1" d="M47.5,0A47.61,47.61,0,0,0,0,47.5c0,1.1,0,2.3.1,3.4v0.2C1.4,76,8.2,94,20.2,104.6c10.1,8.9,20.6,9.7,23.9,9.7H93.7L95,48.9V47.5A47.54,47.54,0,0,0,47.5,0ZM85.9,33.9A17.9,17.9,0,1,1,68,16,17.88,17.88,0,0,1,85.9,33.9ZM69.2,11H67.9A22.94,22.94,0,0,0,47.5,23.5,22.94,22.94,0,0,0,27.1,11H25.8A42.35,42.35,0,0,1,47.5,5,41.81,41.81,0,0,1,69.2,11ZM27.1,16A17.9,17.9,0,1,1,9.2,33.9,17.88,17.88,0,0,1,27.1,16Zm61.8,90.8a9.51,9.51,0,0,1-6.5-2.7c-3.1-3.3-3-8.5-3-8.6,0-.9.3-22.7,0-31.9l-5,.2c0.3,9.2,0,31.5,0,31.6,0,0.3-.3,7.4,4.3,12.2a11.79,11.79,0,0,0,2.1,1.8h-36c-0.1,0-11,.6-21.2-8.5C16.9,94.9,11.9,86.2,8.9,75A117.77,117.77,0,0,1,5.3,50.9V50c0-.8-0.1-1.6-0.1-2.4a60.47,60.47,0,0,1,.4-6.1,22.87,22.87,0,0,0,42,2.9,22.87,22.87,0,0,0,42-2.9,40.77,40.77,0,0,1,.4,6.1v1.2L89.6,69.7Z"/><circle class="cls-2" cx="68" cy="33.9" r="5.2"/><circle class="cls-3" cx="27.1" cy="33.9" r="5.2"/><path class="cls-4" d="M110.1,68.2h11.6V57.7h4V84.5h-4V72H110.1V84.5h-4V57.7h4V68.2Z"/><path class="cls-4" d="M136.2,57.7V73.8a9.65,9.65,0,0,0,1.1,5.1,5.56,5.56,0,0,0,4.7,2.3,5.88,5.88,0,0,0,4.8-2.3c0.8-1,1.1-2.7,1.1-5.1V57.7h4V75a10.1,10.1,0,0,1-2.6,7,10,10,0,0,1-7.3,3.1,9.61,9.61,0,0,1-7.3-3.1,9.5,9.5,0,0,1-2.6-7V57.7h4.1Z"/><path class="cls-4" d="M162.4,57.7v23h7.9v3.8H158.4V57.7h4Z"/><path class="cls-4" d="M174.2,84.5V57.7h4a16.94,16.94,0,0,1,4.3.4,5.81,5.81,0,0,1,2.7,1.4,7.11,7.11,0,0,1,1.8,2.6,7,7,0,0,1,.7,3.1,6.41,6.41,0,0,1-2.2,4.9,6.68,6.68,0,0,1,3.4,2.6,7.39,7.39,0,0,1,1.2,4.2,7,7,0,0,1-2.2,5.3,8,8,0,0,1-3,1.9,18.94,18.94,0,0,1-4.6.5h-6.1V84.5Zm4-15.3h1.3a4.5,4.5,0,0,0,3.3-1,4.37,4.37,0,0,0,0-5.8,4.29,4.29,0,0,0-3.1-1h-1.4v7.8h-0.1Zm0,11.5h2.5a6.16,6.16,0,0,0,4-1.1,3.89,3.89,0,0,0,1.4-3,3.6,3.6,0,0,0-1.3-2.9c-0.8-.8-2.4-1.2-4.5-1.2h-2v8.2h-0.1Z"/><path class="cls-4" d="M199.2,57.7V73.8a9.65,9.65,0,0,0,1.1,5.1,5.56,5.56,0,0,0,4.7,2.3,5.88,5.88,0,0,0,4.8-2.3c0.8-1,1.1-2.7,1.1-5.1V57.7h4V75a10.1,10.1,0,0,1-2.6,7,10,10,0,0,1-7.3,3.1,9.61,9.61,0,0,1-7.3-3.1,9.5,9.5,0,0,1-2.6-7V57.7h4.1Z"/><path class="cls-4" d="M107.6,104.4a3.8,3.8,0,0,0,.5,1.7,4,4,0,0,0,1,1.2,4.58,4.58,0,0,0,1.4.7,8.81,8.81,0,0,0,1.7.2,4.84,4.84,0,0,0,1.8-.3,3.46,3.46,0,0,0,1.2-.7,3.59,3.59,0,0,0,.7-1,5,5,0,0,0,.2-1.2,2.41,2.41,0,0,0-.4-1.5,2.44,2.44,0,0,0-1.1-.9,11.64,11.64,0,0,0-1.5-.6c-0.6-.1-1.1-0.3-1.7-0.4a8.45,8.45,0,0,1-1.7-.5,3.61,3.61,0,0,1-1.5-.8,4.26,4.26,0,0,1-1.1-1.2,3.58,3.58,0,0,1-.4-1.9,4,4,0,0,1,.3-1.5,4.12,4.12,0,0,1,1-1.3,4.17,4.17,0,0,1,1.6-.9,8,8,0,0,1,2.3-.3,5.56,5.56,0,0,1,2.3.4,3.66,3.66,0,0,1,1.6,1,4,4,0,0,1,1,1.5,5.66,5.66,0,0,1,.3,1.8h-1.4a3.34,3.34,0,0,0-.3-1.5,4.44,4.44,0,0,0-.8-1.1,3.38,3.38,0,0,0-1.2-.6,6.75,6.75,0,0,0-1.4-.2,5.41,5.41,0,0,0-1.9.3,3.6,3.6,0,0,0-1.2.8,2.38,2.38,0,0,0-.6,1.1,4.87,4.87,0,0,0-.1,1.2,2.28,2.28,0,0,0,.6,1.2,3.46,3.46,0,0,0,1.2.7,8.8,8.8,0,0,0,1.5.5c0.6,0.1,1.1.3,1.7,0.4a10.93,10.93,0,0,1,1.7.5,3.92,3.92,0,0,1,1.4.8,4,4,0,0,1,1,1.2,3.58,3.58,0,0,1,.4,1.9,4,4,0,0,1-1.5,3.3,6.56,6.56,0,0,1-4.2,1.2,7.8,7.8,0,0,1-2.2-.3,5.08,5.08,0,0,1-1.8-.9,4,4,0,0,1-1.2-1.6,5.09,5.09,0,0,1-.4-2.2h1.2v-0.2Z"/><path class="cls-4" d="M119.5,101.3a11.27,11.27,0,0,1,.5-3.2,8.16,8.16,0,0,1,1.4-2.6,6.46,6.46,0,0,1,2.2-1.8,7.45,7.45,0,0,1,3.1-.6,7.94,7.94,0,0,1,3.2.6,6.58,6.58,0,0,1,2.3,1.7,7.22,7.22,0,0,1,1.4,2.6,11.27,11.27,0,0,1,.5,3.2,10.07,10.07,0,0,1-.5,3.1,8.16,8.16,0,0,1-1.4,2.6,6.58,6.58,0,0,1-2.3,1.7,8.31,8.31,0,0,1-6.2,0,6.58,6.58,0,0,1-2.3-1.7,7.22,7.22,0,0,1-1.4-2.6A9.93,9.93,0,0,1,119.5,101.3Zm7.2,6.8a5.26,5.26,0,0,0,2.6-.6,6.55,6.55,0,0,0,1.8-1.5,5.54,5.54,0,0,0,1-2.2,10.9,10.9,0,0,0,.3-2.6,8.85,8.85,0,0,0-.4-2.9,6.48,6.48,0,0,0-1.1-2.2,4.89,4.89,0,0,0-1.8-1.4,6,6,0,0,0-2.4-.5,5.54,5.54,0,0,0-2.6.6,6.55,6.55,0,0,0-1.8,1.5,5.54,5.54,0,0,0-1,2.2,11.42,11.42,0,0,0,0,5.2,7.39,7.39,0,0,0,1,2.2,6.55,6.55,0,0,0,1.8,1.5A3.79,3.79,0,0,0,126.7,108.1Z"/><path class="cls-4" d="M143.4,104.4a3.8,3.8,0,0,0,.5,1.7,4,4,0,0,0,1,1.2,4.58,4.58,0,0,0,1.4.7,8.81,8.81,0,0,0,1.7.2,4.84,4.84,0,0,0,1.8-.3,3.46,3.46,0,0,0,1.2-.7,3.59,3.59,0,0,0,.7-1,5,5,0,0,0,.2-1.2,2.41,2.41,0,0,0-.4-1.5,2.44,2.44,0,0,0-1.1-.9,11.64,11.64,0,0,0-1.5-.6c-0.6-.1-1.1-0.3-1.7-0.4a8.45,8.45,0,0,1-1.7-.5,3.61,3.61,0,0,1-1.5-.8,4.26,4.26,0,0,1-1.1-1.2,3.58,3.58,0,0,1-.4-1.9,4,4,0,0,1,.3-1.5,4.12,4.12,0,0,1,1-1.3,4.17,4.17,0,0,1,1.6-.9,8,8,0,0,1,2.3-.3,5.56,5.56,0,0,1,2.3.4,3.66,3.66,0,0,1,1.6,1,4,4,0,0,1,1,1.5,5.66,5.66,0,0,1,.3,1.8h-1.4a3.34,3.34,0,0,0-.3-1.5,4.44,4.44,0,0,0-.8-1.1,3.38,3.38,0,0,0-1.2-.6,6.75,6.75,0,0,0-1.4-.2,5.41,5.41,0,0,0-1.9.3,3.6,3.6,0,0,0-1.2.8,2.38,2.38,0,0,0-.6,1.1,4.87,4.87,0,0,0-.1,1.2,2.28,2.28,0,0,0,.6,1.2,3.46,3.46,0,0,0,1.2.7,8.8,8.8,0,0,0,1.5.5c0.6,0.1,1.1.3,1.7,0.4a10.93,10.93,0,0,1,1.7.5,3.92,3.92,0,0,1,1.4.8,4,4,0,0,1,1,1.2,3.58,3.58,0,0,1,.4,1.9,4,4,0,0,1-1.5,3.3,6.56,6.56,0,0,1-4.2,1.2,7.8,7.8,0,0,1-2.2-.3,5.08,5.08,0,0,1-1.8-.9,4,4,0,0,1-1.2-1.6,5.09,5.09,0,0,1-.4-2.2h1.2v-0.2Z"/><path class="cls-4" d="M156.4,109V93.5h1.5V109h-1.5Z"/><path class="cls-4" d="M161.8,109V93.5H164l5.1,13.6h0l5-13.6h2.2V109h-1.5V95.2h0L169.7,109h-1.4l-5.1-13.8h0V109h-1.4Z"/><path class="cls-4" d="M179.7,109V93.5h5.6a9,9,0,0,1,2.5.3,2.75,2.75,0,0,1,1.5.9,3.92,3.92,0,0,1,.8,1.4,8.75,8.75,0,0,1,.2,1.6,4.06,4.06,0,0,1-.5,2.1,3.48,3.48,0,0,1-1.4,1.3,10.66,10.66,0,0,1-1.9.7,14.92,14.92,0,0,1-2.1.2h-3.3v6.8h-1.4V109Zm4.8-8.1a9.72,9.72,0,0,0,1.8-.1,3.36,3.36,0,0,0,1.4-.5,2.19,2.19,0,0,0,.9-1,3.51,3.51,0,0,0,.3-1.6,2.46,2.46,0,0,0-1-2.2,4.89,4.89,0,0,0-3-.8h-3.8v6.1h3.4v0.1Z"/><path class="cls-4" d="M192.9,109V93.5h1.5v14.2h8.3v1.2h-9.8V109Z"/><path class="cls-4" d="M204.8,109V93.5h10.3v1.2h-8.8v5.6h8v1.2h-8v6.1h9v1.2H204.8V109Z"/></g></svg>