<svg id="Layer_1" data-name="Layer 1" xmlns="http://www.w3.org/2000/svg" viewBox="0 0 95 161"><defs><style>.cls-1{fill:#fff;}</style></defs><title>logo-vertical-white</title><g id="Vertical"><path class="cls-1" d="M47.5,0A47.54,47.54,0,0,0,0,47.5c0,1.1,0,2.3.1,3.4v0.2C1.4,76,8.2,94,20.2,104.6c10.1,8.9,20.6,9.7,23.9,9.7H93.7L95,48.9V47.5A47.61,47.61,0,0,0,47.5,0ZM85.8,33.9A17.9,17.9,0,1,1,67.9,16,17.88,17.88,0,0,1,85.8,33.9ZM69.2,11H67.9A22.94,22.94,0,0,0,47.5,23.5,22.94,22.94,0,0,0,27.1,11H25.8A42.24,42.24,0,0,1,69.2,11ZM27.1,16A17.9,17.9,0,1,1,9.2,33.9,17.88,17.88,0,0,1,27.1,16Zm61.7,90.9a9.51,9.51,0,0,1-6.5-2.7c-3.1-3.3-3-8.5-3-8.6,0-.9.3-22.7,0-31.9l-5,.2c0.3,9.2,0,31.5,0,31.6,0,0.3-.3,7.4,4.3,12.2a11.79,11.79,0,0,0,2.1,1.8h-36c-0.1,0-11,.6-21.2-8.5C16.8,95,11.8,86.3,8.8,75.1A117.77,117.77,0,0,1,5.2,51V50.1c0-.8-0.1-1.6-0.1-2.4a60.47,60.47,0,0,1,.4-6.1,22.87,22.87,0,0,0,42,2.9,22.87,22.87,0,0,0,42-2.9,40.77,40.77,0,0,1,.4,6.1v1.2L89.5,69.8Z"/><circle class="cls-1" cx="67.9" cy="33.9" r="5.2"/><circle class="cls-1" cx="27.1" cy="33.9" r="5.2"/><path class="cls-1" d="M21.2,133.1H29V126h2.7v18.1H29v-8.4H21.2v8.4H18.5V126h2.7v7.1Z"/><path class="cls-1" d="M38.8,126v10.9a5.85,5.85,0,0,0,.8,3.4,3.89,3.89,0,0,0,3.2,1.6,3.53,3.53,0,0,0,3.2-1.6,5.85,5.85,0,0,0,.8-3.4V126h2.7v11.6a6.41,6.41,0,0,1-1.8,4.7,6.77,6.77,0,0,1-9.8,0,6.41,6.41,0,0,1-1.8-4.7V126h2.7Z"/><path class="cls-1" d="M56.6,126v15.5h5.3v2.6H53.8V126h2.8Z"/><path class="cls-1" d="M64.5,144.1V126h2.7a11.19,11.19,0,0,1,2.9.3,5.08,5.08,0,0,1,1.8.9,5.23,5.23,0,0,1,1.2,1.7,5.37,5.37,0,0,1,.5,2.1,4.27,4.27,0,0,1-1.5,3.3,4.38,4.38,0,0,1,2.3,1.7,4.59,4.59,0,0,1,.8,2.8,4.91,4.91,0,0,1-1.5,3.6,6.25,6.25,0,0,1-2,1.3,13,13,0,0,1-3.1.3H64.5v0.1Zm2.7-10.3h0.9a2.78,2.78,0,0,0,2.2-.7,3,3,0,0,0,.7-2,2.23,2.23,0,0,0-.7-1.9,3.3,3.3,0,0,0-2.1-.7h-1v5.3Zm0,7.8h1.7a4.15,4.15,0,0,0,2.7-.7,2.52,2.52,0,0,0,.9-2,2.66,2.66,0,0,0-.9-2,4.81,4.81,0,0,0-3.1-.8H67.1v5.5h0.1Z"/><path class="cls-1" d="M81.4,126v10.9a5.85,5.85,0,0,0,.8,3.4,3.89,3.89,0,0,0,3.2,1.6,3.53,3.53,0,0,0,3.2-1.6,5.85,5.85,0,0,0,.8-3.4V126h2.7v11.6a6.41,6.41,0,0,1-1.8,4.7,6.77,6.77,0,0,1-9.8,0,6.41,6.41,0,0,1-1.8-4.7V126h2.7Z"/><path class="cls-1" d="M19.5,157.5a2.13,2.13,0,0,0,.3,1.2,2.7,2.7,0,0,0,.7.8,1.8,1.8,0,0,0,.9.4,4.55,4.55,0,0,0,2.3-.1,2.18,2.18,0,0,0,.8-0.5,1.79,1.79,0,0,0,.5-0.7,2.35,2.35,0,0,0,.2-0.8,1.69,1.69,0,0,0-.3-1,1.34,1.34,0,0,0-.7-0.6,3,3,0,0,0-1-.4l-1.2-.3-1.2-.3a3.13,3.13,0,0,1-1-.5,2.7,2.7,0,0,1-.7-0.8,2.5,2.5,0,0,1-.3-1.3,3,3,0,0,1,.2-1,2.76,2.76,0,0,1,.7-0.9,2.38,2.38,0,0,1,1.1-.6,3.64,3.64,0,0,1,1.5-.2,6.05,6.05,0,0,1,1.5.2,4.13,4.13,0,0,1,1.1.7,3.59,3.59,0,0,1,.7,1,5,5,0,0,1,.2,1.2H24.9a3,3,0,0,0-.2-1,1.34,1.34,0,0,0-.6-0.7,2,2,0,0,0-.8-0.4,3.08,3.08,0,0,0-1-.1,5.07,5.07,0,0,0-1.3.2,2.18,2.18,0,0,0-.8.5,2.51,2.51,0,0,0-.4.7,1.1,1.1,0,0,0,0,.8,2,2,0,0,0,.4.8,2.18,2.18,0,0,0,.8.5c0.3,0.1.7,0.2,1,.3s0.8,0.2,1.1.3,0.8,0.2,1.1.3a3.13,3.13,0,0,1,1,.5,2.7,2.7,0,0,1,.7.8,2.5,2.5,0,0,1,.3,1.3,2.46,2.46,0,0,1-1,2.2,4.65,4.65,0,0,1-2.8.8,7.72,7.72,0,0,1-1.5-.2,3.37,3.37,0,0,1-1.2-.6,2.42,2.42,0,0,1-.8-1.1,3.34,3.34,0,0,1-.3-1.5h0.9v0.1Z"/><path class="cls-1" d="M27.6,155.4a6.65,6.65,0,0,1,.3-2.1,5.56,5.56,0,0,1,.9-1.7,4.43,4.43,0,0,1,1.5-1.2,4.64,4.64,0,0,1,2.1-.4,4.64,4.64,0,0,1,2.1.4,4.43,4.43,0,0,1,1.5,1.2,5.08,5.08,0,0,1,.9,1.8,7.8,7.8,0,0,1,.3,2.2,6.65,6.65,0,0,1-.3,2.1,4.61,4.61,0,0,1-.9,1.7,4.43,4.43,0,0,1-1.5,1.2,4.64,4.64,0,0,1-2.1.4,4.64,4.64,0,0,1-2.1-.4,4.43,4.43,0,0,1-1.5-1.2,5.56,5.56,0,0,1-.9-1.7A9.08,9.08,0,0,1,27.6,155.4Zm4.8,4.7a2.86,2.86,0,0,0,1.7-.4,4,4,0,0,0,1.2-1,5.23,5.23,0,0,0,.7-1.5,9.91,9.91,0,0,0,.2-1.8,5.41,5.41,0,0,0-.3-1.9,3.61,3.61,0,0,0-.8-1.5,3.45,3.45,0,0,0-1.2-.9,4.15,4.15,0,0,0-1.6-.3,3.06,3.06,0,0,0-1.7.4,4,4,0,0,0-1.2,1,5.23,5.23,0,0,0-.7,1.5,9.91,9.91,0,0,0-.2,1.8,11,11,0,0,0,.2,1.8,5.23,5.23,0,0,0,.7,1.5,2.94,2.94,0,0,0,1.2,1A11.27,11.27,0,0,0,32.4,160.1Z"/><path class="cls-1" d="M43.7,157.5a2.13,2.13,0,0,0,.3,1.2,2.7,2.7,0,0,0,.7.8,1.8,1.8,0,0,0,.9.4,4.55,4.55,0,0,0,2.3-.1,2.18,2.18,0,0,0,.8-0.5,1.79,1.79,0,0,0,.5-0.7,2.35,2.35,0,0,0,.2-0.8,1.69,1.69,0,0,0-.3-1,1.34,1.34,0,0,0-.7-0.6,3,3,0,0,0-1-.4l-1.2-.3-1.2-.3a3.13,3.13,0,0,1-1-.5,2.7,2.7,0,0,1-.7-0.8,2.5,2.5,0,0,1-.3-1.3,3,3,0,0,1,.2-1,2.76,2.76,0,0,1,.7-0.9,2.38,2.38,0,0,1,1.1-.6,3.64,3.64,0,0,1,1.5-.2,6.05,6.05,0,0,1,1.5.2,4.13,4.13,0,0,1,1.1.7,3.59,3.59,0,0,1,.7,1A5,5,0,0,1,50,153H49.1a3,3,0,0,0-.2-1,1.34,1.34,0,0,0-.6-0.7,2,2,0,0,0-.8-0.4,3.08,3.08,0,0,0-1-.1,5.07,5.07,0,0,0-1.3.2,2.18,2.18,0,0,0-.8.5,2.51,2.51,0,0,0-.4.7,1.1,1.1,0,0,0,0,.8,2,2,0,0,0,.4.8,2.18,2.18,0,0,0,.8.5c0.3,0.1.7,0.2,1,.3s0.8,0.2,1.1.3,0.8,0.2,1.1.3a3.13,3.13,0,0,1,1,.5,2.7,2.7,0,0,1,.7.8,2.5,2.5,0,0,1,.3,1.3,2.46,2.46,0,0,1-1,2.2,4.65,4.65,0,0,1-2.8.8,7.72,7.72,0,0,1-1.5-.2,3.37,3.37,0,0,1-1.2-.6,2.42,2.42,0,0,1-.8-1.1,3.34,3.34,0,0,1-.3-1.5h0.9v0.1Z"/><path class="cls-1" d="M52.5,160.6V150.2h1v10.4h-1Z"/><path class="cls-1" d="M56.1,160.6V150.2h1.5l3.4,9.2h0l3.4-9.2h1.5v10.4h-1v-9.3h0l-3.4,9.3H60.6l-3.4-9.3h0v9.3H56.1Z"/><path class="cls-1" d="M68.2,160.6V150.2H72a7.93,7.93,0,0,1,1.7.2,4.37,4.37,0,0,1,1,.6,2,2,0,0,1,.5.9,4.25,4.25,0,0,1,.2,1.1,2.72,2.72,0,0,1-1.3,2.3,5,5,0,0,1-1.3.5,7.08,7.08,0,0,1-1.4.1H69.2v4.6h-1v0.1Zm3.3-5.4a4.12,4.12,0,0,0,1.2-.1,4.65,4.65,0,0,0,.9-0.3,1.34,1.34,0,0,0,.6-0.7,3.09,3.09,0,0,0,.2-1.1,1.75,1.75,0,0,0-.6-1.5,3.58,3.58,0,0,0-2.1-.5H69.1v4.1h2.4v0.1Z"/><path class="cls-1" d="M77.1,160.6V150.2h1v9.6h5.6v0.8H77.1Z"/><path class="cls-1" d="M85.2,160.6V150.2h6.9V151h-6v3.8h5.4v0.8H86.1v4.1h6.1v0.8h-7v0.1Z"/></g></svg>